name C:\Users\u0101727\Documents\MyRepositories\predictivesimulations\OpenSimModel\subject1\EMG\EMG_gait_60.mot
datacolumns 25
datarows 22
range 3.45800000 3.47900000
endheader
time	HamL_r	TA_r	PerL_r	GL_r	HamM_r	Sol_r	VL_r	VM_r	PerB_l	TA_l	PerL_l	GL_l	GM_l	Sol_l	VL_l	VM_l	AddL_l	RF_l	TFL_l	GluMed_l	HamL_l	HamM_l	GluMed_r	RF_r	
          3.45800000	          0.00468852	          0.00372706	          0.00437900	          0.00397316	          0.00342425	          0.01407440	          0.00537454	          0.00335286	          0.03531507	          0.00215707	          0.01541196	          0.01474572	          0.01630251	          0.07564949	          0.03116249	          0.03660959	          0.00994467	          0.01939480	          0.01998362	          0.01911190	          0.00783500	          0.00662386	          0.00822186	          0.00902946	
          3.45900000	          0.00473400	          0.00370945	          0.00435777	          0.00397695	          0.00343343	          0.01413691	          0.00534022	          0.00339871	          0.03586892	          0.00220132	          0.01550346	          0.01476789	          0.01635854	          0.07669970	          0.03092724	          0.03635641	          0.00975756	          0.01900770	          0.01989788	          0.01895171	          0.00771621	          0.00653464	          0.00833470	          0.00881221	
          3.46000000	          0.00477861	          0.00369181	          0.00433677	          0.00398015	          0.00344424	          0.01419746	          0.00530523	          0.00344511	          0.03642086	          0.00225081	          0.01559263	          0.01479044	          0.01642204	          0.07769890	          0.03066234	          0.03608557	          0.00957747	          0.01862419	          0.01982038	          0.01881424	          0.00760030	          0.00644719	          0.00845007	          0.00860169	
          3.46100000	          0.00482210	          0.00367416	          0.00431631	          0.00398253	          0.00345646	          0.01425580	          0.00526963	          0.00349186	          0.03697108	          0.00230485	          0.01567945	          0.01481355	          0.01649375	          0.07864700	          0.03036908	          0.03579454	          0.00940449	          0.01824483	          0.01975098	          0.01869881	          0.00748730	          0.00636154	          0.00856825	          0.00839836	
          3.46200000	          0.00486426	          0.00365652	          0.00429667	          0.00398386	          0.00346981	          0.01431170	          0.00523357	          0.00353889	          0.03751975	          0.00236277	          0.01576388	          0.01483731	          0.01657443	          0.07954478	          0.03004916	          0.03548182	          0.00923868	          0.01787033	          0.01968961	          0.01860461	          0.00737721	          0.00627774	          0.00868957	          0.00820260	
          3.46300000	          0.00490492	          0.00363890	          0.00427807	          0.00398403	          0.00348406	          0.01436494	          0.00519717	          0.00358618	          0.03806683	          0.00242392	          0.01584590	          0.01486165	          0.01666484	          0.08039320	          0.02970457	          0.03514698	          0.00908008	          0.01750138	          0.01963629	          0.01853072	          0.00726998	          0.00619584	          0.00881446	          0.00801469	
          3.46400000	          0.00494390	          0.00362130	          0.00426069	          0.00398299	          0.00349901	          0.01441530	          0.00516060	          0.00363385	          0.03861206	          0.00248770	          0.01592536	          0.01488649	          0.01676576	          0.08119278	          0.02933768	          0.03479023	          0.00892874	          0.01713866	          0.01959120	          0.01847618	          0.00716556	          0.00611590	          0.00894331	          0.00783485	
          3.46500000	          0.00498103	          0.00360376	          0.00424466	          0.00398079	          0.00351452	          0.01446255	          0.00512399	          0.00368197	          0.03915508	          0.00255354	          0.01600200	          0.01491166	          0.01687790	          0.08194339	          0.02895115	          0.03441201	          0.00878471	          0.01678279	          0.01955470	          0.01844001	          0.00706387	          0.00603795	          0.00907652	          0.00766324	
          3.46600000	          0.00501610	          0.00358637	          0.00423011	          0.00397753	          0.00353044	          0.01450648	          0.00508749	          0.00373066	          0.03969546	          0.00262091	          0.01607543	          0.01493702	          0.01700192	          0.08264445	          0.02854780	          0.03401279	          0.00864799	          0.01643431	          0.01952717	          0.01842109	          0.00696486	          0.00596200	          0.00921445	          0.00749997	
          3.46700000	          0.00504892	          0.00356928	          0.00421713	          0.00397331	          0.00354666	          0.01454692	          0.00505120	          0.00377997	          0.04023270	          0.00268938	          0.01614529	          0.01496240	          0.01713838	          0.08329528	          0.02813043	          0.03359282	          0.00851852	          0.01609365	          0.01950891	          0.01841815	          0.00686852	          0.00588806	          0.00935740	          0.00734511	
          3.46800000	          0.00507931	          0.00355264	          0.00420581	          0.00396826	          0.00356311	          0.01458378	          0.00501522	          0.00382994	          0.04076641	          0.00275862	          0.01621142	          0.01498762	          0.01728778	          0.08389513	          0.02770170	          0.03315204	          0.00839616	          0.01576118	          0.01950004	          0.01842966	          0.00677495	          0.00581612	          0.00950558	          0.00719865	
          3.46900000	          0.00510722	          0.00353661	          0.00419623	          0.00396251	          0.00357986	          0.01461715	          0.00497960	          0.00388054	          0.04129639	          0.00282839	          0.01627392	          0.01501260	          0.01745044	          0.08444290	          0.02726396	          0.03269016	          0.00828065	          0.01543725	          0.01950056	          0.01845394	          0.00668429	          0.00574621	          0.00965918	          0.00706050	
          3.47000000	          0.00513265	          0.00352132	          0.00418839	          0.00395626	          0.00359704	          0.01464717	          0.00494434	          0.00393171	          0.04182289	          0.00289849	          0.01633303	          0.01503743	          0.01762655	          0.08493757	          0.02681928	          0.03220685	          0.00817166	          0.01512226	          0.01951047	          0.01848910	          0.00659664	          0.00567839	          0.00981831	          0.00693054	
          3.47100000	          0.00515564	          0.00350688	          0.00418230	          0.00394970	          0.00361482	          0.01467399	          0.00490941	          0.00398332	          0.04234654	          0.00296882	          0.01638910	          0.01506242	          0.01781619	          0.08537938	          0.02636950	          0.03170195	          0.00806888	          0.01481656	          0.01952983	          0.01853319	          0.00651209	          0.00561282	          0.00998309	          0.00680854	
          3.47200000	          0.00517617	          0.00349340	          0.00417793	          0.00394300	          0.00363334	          0.01469776	          0.00487473	          0.00403525	          0.04286810	          0.00303934	          0.01644258	          0.01508799	          0.01801931	          0.08577111	          0.02591625	          0.03117582	          0.00797206	          0.01452053	          0.01955870	          0.01858416	          0.00643073	          0.00554972	          0.01015369	          0.00669422	
          3.47300000	          0.00519422	          0.00348094	          0.00417520	          0.00393632	          0.00365274	          0.01471857	          0.00484022	          0.00408729	          0.04338833	          0.00311012	          0.01649399	          0.01511457	          0.01823587	          0.08611766	          0.02546089	          0.03062946	          0.00788101	          0.01423454	          0.01959705	          0.01863984	          0.00635267	          0.00548928	          0.01033020	          0.00658725	
          3.47400000	          0.00520973	          0.00346956	          0.00417405	          0.00392976	          0.00367310	          0.01473647	          0.00480579	          0.00413926	          0.04390826	          0.00318129	          0.01654381	          0.01514255	          0.01846573	          0.08642442	          0.02500458	          0.03006421	          0.00779558	          0.01395891	          0.01964463	          0.01869789	          0.00627811	          0.00543162	          0.01051264	          0.00648727	
          3.47500000	          0.00522263	          0.00345930	          0.00417436	          0.00392344	          0.00369448	          0.01475147	          0.00477143	          0.00419089	          0.04442923	          0.00325293	          0.01659240	          0.01517231	          0.01870866	          0.08669609	          0.02454820	          0.02948130	          0.00771559	          0.01369385	          0.01970105	          0.01875591	          0.00620722	          0.00537685	          0.01070089	          0.00639399	
          3.47600000	          0.00523284	          0.00345016	          0.00417601	          0.00391745	          0.00371687	          0.01476356	          0.00473715	          0.00424195	          0.04495261	          0.00332515	          0.01664008	          0.01520432	          0.01896427	          0.08693635	          0.02409232	          0.02888182	          0.00764088	          0.01343955	          0.01976585	          0.01881164	          0.00614016	          0.00532502	          0.01089475	          0.00630718	
          3.47700000	          0.00524031	          0.00344214	          0.00417890	          0.00391188	          0.00374025	          0.01477271	          0.00470302	          0.00429224	          0.04547940	          0.00339801	          0.01668716	          0.01523913	          0.01923205	          0.08714811	          0.02363722	          0.02826681	          0.00757129	          0.01319616	          0.01983867	          0.01886311	          0.00607704	          0.00527615	          0.01109390	          0.00622664	
          3.47800000	          0.00524510	          0.00343520	          0.00418290	          0.00390680	          0.00376457	          0.01477881	          0.00466911	          0.00434162	          0.04601035	          0.00347156	          0.01673397	          0.01527732	          0.01951147	          0.08733366	          0.02318291	          0.02763750	          0.00750657	          0.01296374	          0.01991924	          0.01890862	          0.00601795	          0.00523026	          0.01129794	          0.00615218	
          3.47900000	          0.00524728	          0.00342931	          0.00418785	          0.00390227	          0.00378977	          0.01478171	          0.00463556	          0.00439003	          0.04654615	          0.00354583	          0.01678073	          0.01531941	          0.01980201	          0.08749481	          0.02272912	          0.02699560	          0.00744645	          0.01274226	          0.02000736	          0.01894665	          0.00596303	          0.00518733	          0.01150640	          0.00608355	
